#!OML:ASF F:\VICON\USERDATA\INSTALL\rory3\rory3.ASF
:FULLY-SPECIFIED
:DEGREES
802
root 0.748603 15.6342 3.08034 7.6238 -39.8884 13.0501
lowerback -1.82867 6.02646 6.71922
upperback 4.55807 7.81172 -1.70804
thorax 6.97135 4.24428 -4.84145
lowerneck 1.02003 -10.4849 -12.5219
upperneck 46.599 -20.1332 9.45078
head 21.3932 -9.47288 3.70385
rclavicle 7.71285e-014 7.95139e-015
rhumerus -21.1304 18.0256 -95.6143
rradius 18.3169
rwrist 19.2912
rhand -27.5997 -55.3053
rfingers 7.12502
rthumb -0.999337 -85.2827
lclavicle 7.71285e-014 7.95139e-015
lhumerus -49.8374 -84.9607 126.205
lradius 83.1321
lwrist 26.8754
lhand 12.1817 -21.3742
lfingers 7.12502
lthumb 37.1926 4.64023
rfemur -32.2198 -1.74338 -4.05181
rtibia 76.448
rfoot -3.44926 -11.6954
rtoes -32.5017
lfemur -51.9063 -21.8553 -29.2773
ltibia 58.0806
lfoot -20.5804 -3.36422
ltoes 19.5782
803
root 0.745912 15.6302 3.08287 7.35182 -39.9794 13.4252
lowerback -1.84717 6.03996 6.44414
upperback 4.61431 7.84724 -1.80646
thorax 7.02115 4.25417 -4.78536
lowerneck 0.957426 -10.4864 -12.5566
upperneck 46.5989 -20.1925 9.58141
head 21.4779 -9.48956 3.76241
rclavicle 2.38542e-015 9.54166e-015
rhumerus -21.0913 17.935 -95.6006
rradius 18.3207
rwrist 19.3951
rhand -27.5872 -55.5369
rfingers 7.12502
rthumb -0.987257 -85.5143
lclavicle 2.38542e-015 9.54166e-015
lhumerus -48.7498 -85.0085 125.084
lradius 83.127
lwrist 26.8385
lhand 13.5069 -21.8304
lfingers 7.12502
lthumb 38.4444 3.84649
rfemur -32.2219 -1.74359 -4.41357
rtibia 76.4894
rfoot -3.40533 -11.641
rtoes -32.7138
lfemur -51.7951 -21.805 -29.6002
ltibia 58.0264
lfoot -20.6002 -3.38167
ltoes 18.9135
804
root 0.744298 15.6312 3.08401 7.22698 -39.9298 13.5944
lowerback -1.85415 6.00307 6.32915
upperback 4.63241 7.80497 -1.84171
thorax 7.02647 4.22935 -4.76292
lowerneck 1.03778 -10.4884 -12.5419
upperneck 46.5437 -20.2102 9.62141
head 21.4156 -9.49541 3.78026
rclavicle -1.20066e-013 1.11319e-014
rhumerus -21.0943 18.0697 -95.6427
rradius 18.3055
rwrist 19.2803
rhand -27.7395 -55.486
rfingers 7.12502
rthumb -1.13428 -85.4627
lclavicle -1.20066e-013 1.11319e-014
lhumerus -47.8088 -85.0957 124.075
lradius 83.2176
lwrist 26.9729
lhand 2.9469 -21.4966
lfingers 7.12502
lthumb 28.4098 6.36714
rfemur -32.1525 -1.85665 -4.5666
rtibia 76.5027
rfoot -3.44819 -11.6107
rtoes -32.538
lfemur -51.7177 -21.8291 -29.7682
ltibia 57.9832
lfoot -20.5997 -3.39512
ltoes 18.6091
805
root 0.743126 15.6321 3.07958 7.33685 -39.8305 13.4075
lowerback -1.77411 5.97012 6.45816
upperback 4.59825 7.75632 -1.78813
thorax 6.94779 4.20742 -4.79342
lowerneck 1.16358 -10.4725 -12.5181
upperneck 46.5005 -20.188 9.62671
head 21.3256 -9.48886 3.79072
rclavicle -3.73715e-014 2.06736e-014
rhumerus -21.1672 18.1474 -95.6635
rradius 18.3448
rwrist 19.1609
rhand -27.653 -55.372
rfingers 7.12502
rthumb -1.05082 -85.3492
lclavicle -3.73715e-014 2.06736e-014
lhumerus -46.9281 -85.1499 123.136
lradius 83.3198
lwrist 27.1684
lhand 0.620213 -21.6595
lfingers 7.12502
lthumb 26.1843 6.55457
rfemur -32.1241 -1.91297 -4.36306
rtibia 76.5136
rfoot -3.4328 -11.6601
rtoes -32.853
lfemur -51.7419 -21.8374 -29.5969
ltibia 57.9816
lfoot -20.5392 -3.44799
ltoes 18.7277
806
root 0.740498 15.6317 3.07421 7.36975 -39.8502 13.3448
lowerback -1.70469 5.99207 6.49463
upperback 4.59441 7.78844 -1.79431
thorax 6.9149 4.22469 -4.82374
lowerneck 1.12232 -10.5105 -12.4189
upperneck 46.5342 -20.2285 9.54616
head 21.333 -9.49057 3.72073
rclavicle 2.06736e-014 -6.20208e-014
rhumerus -21.1453 17.8973 -95.6259
rradius 18.3932
rwrist 19.251
rhand -27.2838 -55.334
rfingers 7.12502
rthumb -0.69422 -85.3126
lclavicle 2.06736e-014 -6.20208e-014
lhumerus -46.1955 -85.206 122.388
lradius 83.2938
lwrist 27.2199
lhand -3.76724 -22.0612
lfingers 7.12502
lthumb 21.9775 6.7103
rfemur -32.1776 -1.85346 -4.27319
rtibia 76.534
rfoot -3.34951 -11.7131
rtoes -33.534
lfemur -51.7668 -21.7742 -29.532
ltibia 58.0009
lfoot -20.5151 -3.40702
ltoes 18.7978
807
root 0.737606 15.6323 3.07467 7.38053 -39.9011 13.3402
lowerback -1.71114 6.03621 6.51763
upperback 4.58942 7.84775 -1.81725
thorax 6.92901 4.25626 -4.85296
lowerneck 1.08008 -10.5605 -12.2863
upperneck 46.6121 -20.2914 9.43524
head 21.3687 -9.49721 3.62629
rclavicle 3.97569e-015 2.8625e-014
rhumerus -21.1674 17.6591 -95.5962
rradius 18.4499
rwrist 19.2213
rhand -27.3735 -55.2233
rfingers 7.12502
rthumb -0.780781 -85.2016
lclavicle 3.97569e-015 2.8625e-014
lhumerus -46.7645 -85.2787 122.946
lradius 83.2835
lwrist 27.2507
lhand -1.00443 -23.0715
lfingers 7.12502
lthumb 24.628 5.36403
rfemur -32.2071 -1.78813 -4.26008
rtibia 76.5372
rfoot -3.39774 -11.7646
rtoes -33.5097
lfemur -51.778 -21.6948 -29.5592
ltibia 58.0358
lfoot -20.5171 -3.57736
ltoes 19.9572
808
root 0.735099 15.6324 3.07873 7.42108 -39.8925 13.272
lowerback -1.72973 6.05874 6.59237
upperback 4.56808 7.87285 -1.80084
thorax 6.92928 4.27126 -4.87274
lowerneck 1.09895 -10.5832 -12.2112
upperneck 46.685 -20.3291 9.36829
head 21.3994 -9.50424 3.57491
rclavicle 1.51076e-013 -4.13472e-014
rhumerus -21.2521 17.4039 -95.5513
rradius 18.4851
rwrist 19.1355
rhand -27.8023 -54.9013
rfingers 7.12502
rthumb -1.19493 -84.8777
lclavicle 1.51076e-013 -4.13472e-014
lhumerus -48.1809 -85.3982 124.354
lradius 83.3749
lwrist 27.4427
lhand -1.20824 -22.5326
lfingers 7.12502
lthumb 24.4326 5.92934
rfemur -32.1571 -1.81091 -4.20628
rtibia 76.5331
rfoot -3.76379 -11.6957
rtoes -33.8732
lfemur -51.7759 -21.6266 -29.5793
ltibia 58.089
lfoot -20.5622 -3.84168
ltoes 21.7061
809
root 0.734339 15.6305 3.07274 7.45619 -39.8254 13.2019
lowerback -1.69005 6.06015 6.65564
upperback 4.57414 7.87325 -1.78916
thorax 6.92098 4.2743 -4.89879
lowerneck 1.08948 -10.6055 -12.0907
upperneck 46.6981 -20.338 9.28183
head 21.3625 -9.49144 3.5069
rclavicle -1.4074e-013 9.54166e-015
rhumerus -21.2086 16.9782 -95.4569
rradius 18.4826
rwrist 19.35
rhand -27.9032 -54.5924
rfingers 7.12502
rthumb -1.29242 -84.5682
lclavicle -1.4074e-013 9.54166e-015
lhumerus -48.9355 -85.648 125.097
lradius 83.4855
lwrist 27.6722
lhand -3.03883 -22.2459
lfingers 7.12502
lthumb 22.6767 6.44173
rfemur -32.1542 -1.87087 -4.11356
rtibia 76.5628
rfoot -4.00694 -11.6205
rtoes -33.6931
lfemur -51.816 -21.6287 -29.5089
ltibia 58.1412
lfoot -20.6192 -3.73279
ltoes 21.003
810
root 0.73458 15.63 3.06002 7.68629 -39.7571 12.9208
lowerback -1.62256 6.06977 6.83106
upperback 4.55708 7.87905 -1.73725
thorax 6.88356 4.28279 -4.9475
lowerneck 1.0294 -10.6287 -11.8293
upperneck 46.7111 -20.2928 9.05982
head 21.2557 -9.44055 3.35176
rclavicle -9.22361e-014 3.49861e-014
rhumerus -21.13 16.647 -95.3662
rradius 18.4679
rwrist 19.6529
rhand -27.8374 -54.4555
rfingers 7.12502
rthumb -1.22883 -84.4317
lclavicle -9.22361e-014 3.49861e-014
lhumerus -48.9153 -85.8765 125.075
lradius 83.5429
lwrist 27.7634
lhand -1.61445 -21.6985
lfingers 7.12502
lthumb 24.0431 6.81544
rfemur -32.293 -1.88601 -3.79245
rtibia 76.6023
rfoot -3.7084 -11.7811
rtoes -32.3937
lfemur -51.9956 -21.6084 -29.1513
ltibia 58.1959
lfoot -20.6033 -3.6233
ltoes 19.02
811
root 0.732895 15.6333 3.05989 7.88439 -39.7817 12.6751
lowerback -1.60316 6.09586 6.97832
upperback 4.52029 7.9064 -1.69183
thorax 6.85249 4.30016 -4.98114
lowerneck 0.971184 -10.6338 -11.5973
upperneck 46.7719 -20.2254 8.82208
head 21.1878 -9.3892 3.20076
rclavicle -6.83819e-014 1.43125e-014
rhumerus -21.1225 16.5725 -95.3583
rradius 18.3922
rwrist 19.6975
rhand -27.7909 -54.4069
rfingers 7.12502
rthumb -1.18395 -84.3834
lclavicle -6.83819e-014 1.43125e-014
lhumerus -48.8559 -85.8783 125.023
lradius 83.5172
lwrist 27.6235
lhand 0.592144 -21.8195
lfingers 7.12502
lthumb 26.1574 6.39856
rfemur -32.3432 -1.8772 -3.56756
rtibia 76.5853
rfoot -3.50074 -11.8764
rtoes -31.8769
lfemur -52.097 -21.5556 -28.8875
ltibia 58.2404
lfoot -20.5848 -3.69999
ltoes 18.6398
812
root 0.730378 15.6368 3.06536 7.83999 -39.8513 12.7058
lowerback -1.59082 6.11259 6.92839
upperback 4.51405 7.93132 -1.68082
thorax 6.83297 4.30887 -4.94136
lowerneck 0.941929 -10.6364 -11.6013
upperneck 46.869 -20.1998 8.71027
head 21.2434 -9.38678 3.14974
rclavicle 6.36111e-015 -1.74931e-014
rhumerus -21.1588 16.649 -95.3666
rradius 18.4012
rwrist 19.6212
rhand -27.6777 -54.4349
rfingers 7.12502
rthumb -1.07459 -84.412
lclavicle 6.36111e-015 -1.74931e-014
lhumerus -48.954 -85.7023 125.179
lradius 83.4241
lwrist 27.3337
lhand -1.61965 -21.8276
lfingers 7.12502
lthumb 24.0382 6.68705
rfemur -32.2781 -1.85614 -3.6261
rtibia 76.5495
rfoot -3.57278 -11.8195
rtoes -32.0916
lfemur -52.0428 -21.5486 -28.9238
ltibia 58.2623
lfoot -20.5841 -3.81968
ltoes 19.2831
813
root 0.730087 15.6359 3.0566 7.90646 -39.8262 12.6035
lowerback -1.49493 6.08456 6.94925
upperback 4.49342 7.89454 -1.60475
thorax 6.74137 4.28607 -4.88929
lowerneck 0.923162 -10.6465 -11.7494
upperneck 46.9455 -20.1839 8.64273
head 21.326 -9.40953 3.14372
rclavicle -3.89618e-014 -4.6118e-014
rhumerus -21.2214 16.8904 -95.3435
rradius 18.5041
rwrist 19.5129
rhand -27.7834 -54.2929
rfingers 7.12502
rthumb -1.17674 -84.2694
lclavicle -3.89618e-014 -4.6118e-014
lhumerus -49.2386 -85.5121 125.561
lradius 83.3797
lwrist 27.1831
lhand 0.207494 -21.775
lfingers 7.12502
lthumb 25.7891 6.49702
rfemur -32.3233 -1.82316 -3.49621
rtibia 76.5653
rfoot -3.64347 -11.8238
rtoes -32.1571
lfemur -52.1052 -21.5656 -28.7807
ltibia 58.286
lfoot -20.5414 -3.95175
ltoes 19.8127
814
root 0.730629 15.6359 3.04999 8.00569 -39.794 12.4598
lowerback -1.46279 6.06332 7.05456
upperback 4.49691 7.85931 -1.54096
thorax 6.72766 4.27118 -4.88703
lowerneck 0.902125 -10.6591 -11.8189
upperneck 46.9675 -20.1717 8.58586
head 21.3481 -9.41927 3.12727
rclavicle 3.73715e-014 -1.74931e-014
rhumerus -21.2092 17.3146 -95.3745
rradius 18.4965
rwrist 19.2111
rhand -27.9826 -54.1406
rfingers 7.12502
rthumb -1.36914 -84.1159
lclavicle 3.73715e-014 -1.74931e-014
lhumerus -49.0082 -85.4447 125.382
lradius 83.3943
lwrist 27.1107
lhand -2.0935 -21.3984
lfingers 7.12502
lthumb 23.5837 7.17548
rfemur -32.3476 -1.81057 -3.34635
rtibia 76.5656
rfoot -3.74029 -11.8037
rtoes -31.8273
lfemur -52.1635 -21.6464 -28.617
ltibia 58.296
lfoot -20.5225 -3.93177
ltoes 20.6435
815
root 0.729533 15.6389 3.05617 7.90837 -39.8493 12.5561
lowerback -1.54669 6.07461 7.02059
upperback 4.54753 7.87014 -1.55684
thorax 6.82938 4.27921 -4.8714
lowerneck 0.868018 -10.6732 -11.7765
upperneck 46.9638 -20.1766 8.54265
head 21.3348 -9.41517 3.09375
rclavicle 8.18993e-014 1.59028e-014
rhumerus -21.1434 17.7053 -95.4482
rradius 18.3981
rwrist 18.9033
rhand -27.9336 -54.2925
rfingers 7.12502
rthumb -1.32175 -84.2681
lclavicle 8.18993e-014 1.59028e-014
lhumerus -48.4349 -85.4333 124.819
lradius 83.365
lwrist 27.0163
lhand -0.132721 -21.6675
lfingers 7.12502
lthumb 25.4632 6.65146
rfemur -32.2792 -1.82696 -3.46571
rtibia 76.5258
rfoot -3.73805 -11.7622
rtoes -31.8341
lfemur -52.0684 -21.7167 -28.7547
ltibia 58.2824
lfoot -20.5404 -3.85106
ltoes 21.7127
816
root 0.727735 15.6405 3.06099 7.81451 -39.8774 12.6581
lowerback -1.60632 6.07557 6.95615
upperback 4.57259 7.87074 -1.57012
thorax 6.88294 4.27867 -4.84207
lowerneck 0.893397 -10.6863 -11.7466
upperneck 46.9135 -20.1973 8.55181
head 21.2836 -9.41893 3.08927
rclavicle -1.51076e-014 1.27222e-014
rhumerus -21.1791 17.6955 -95.4424
rradius 18.4498
rwrist 18.9848
rhand -27.9131 -54.4034
rfingers 7.12502
rthumb -1.30197 -84.3792
lclavicle -1.51076e-014 1.27222e-014
lhumerus -48.4103 -85.4287 124.791
lradius 83.3533
lwrist 27.0227
lhand -2.44325 -21.4678
lfingers 7.12502
lthumb 23.2482 7.14879
rfemur -32.1992 -1.85865 -3.59097
rtibia 76.484
rfoot -3.80114 -11.7011
rtoes -31.2639
lfemur -51.9934 -21.7066 -28.8901
ltibia 58.2615
lfoot -20.4712 -3.92969
ltoes 22.5217
